<svg xmlns="http://www.w3.org/2000/svg" width="619" height="619" fill="none"><g clip-path="url(#a)"><mask id="c" width="803" height="619" x="-92" y="0" maskUnits="userSpaceOnUse" style="mask-type:alpha"><ellipse cx="309.667" cy="309.623" fill="url(#b)" rx="401.167" ry="309.169"/></mask><g mask="url(#c)"><circle cx="309.076" cy="24.141" r="285.057" stroke="url(#d)" stroke-width="2.557"/><circle cx="309.076" cy="24.141" r="286.335" fill="url(#e)" opacity=".5"/><circle cx="309.076" cy="596.811" r="285.057" stroke="url(#f)" stroke-width="2.557"/><circle cx="309.076" cy="596.811" r="286.335" fill="url(#g)" opacity=".1"/><g filter="url(#h)"><rect width="102.262" height="102.262" x="104.551" y="361.475" fill="#F8F8F8" fill-opacity=".01" rx="51.131" transform="rotate(-90 104.551 361.475)"/><rect width="99.706" height="99.706" x="105.829" y="360.196" stroke="#F8F8F8" stroke-opacity=".1" stroke-width="2.557" rx="49.853" transform="rotate(-90 105.829 360.196)"/><g clip-path="url(#i)"><path fill="url(#j)" d="M147.155 336.041a8.525 8.525 0 0 0 8.522-8.522v-8.521h-8.522c-4.704 0-8.522 3.817-8.522 8.521a8.525 8.525 0 0 0 8.522 8.522Z"/><path fill="url(#k)" d="M138.633 310.476a8.525 8.525 0 0 1 8.522-8.522h8.522v17.044h-8.522a8.525 8.525 0 0 1-8.522-8.522Z"/><path fill="url(#l)" d="M138.633 293.432a8.525 8.525 0 0 1 8.522-8.522h8.522v17.044h-8.522a8.525 8.525 0 0 1-8.522-8.522Z"/><path fill="url(#m)" d="M155.676 284.91h8.522a8.525 8.525 0 0 1 8.522 8.522 8.525 8.525 0 0 1-8.522 8.522h-8.522V284.91Z"/><path fill="url(#n)" d="M172.72 310.476a8.525 8.525 0 0 1-8.522 8.522 8.525 8.525 0 0 1-8.522-8.522 8.525 8.525 0 0 1 8.522-8.522 8.525 8.525 0 0 1 8.522 8.522Z"/></g></g><g filter="url(#o)"><rect width="102.262" height="102.262" x="162.533" y="158.786" fill="#F8F8F8" fill-opacity=".01" rx="51.131" transform="rotate(-30 162.533 158.786)"/><rect width="99.706" height="99.706" x="164.279" y="159.254" stroke="#F8F8F8" stroke-opacity=".1" stroke-width="2.557" rx="49.853" transform="rotate(-30 164.279 159.254)"/><g clip-path="url(#p)"><path fill="url(#q)" d="M215.337 151.968h34.087v17.044h-17.043l-17.044-17.044Zm0 17.044h17.044l17.043 17.044h-34.087v-17.044Zm0 17.044h17.044V203.1l-17.044-17.044Z"/></g></g><g filter="url(#r)"><rect width="102.262" height="102.262" x="367.058" y="107.654" fill="#F8F8F8" fill-opacity=".01" rx="51.131" transform="rotate(30 367.058 107.654)"/><rect width="99.706" height="99.706" x="367.526" y="109.4" stroke="#F8F8F8" stroke-opacity=".1" stroke-width="2.557" rx="49.853" transform="rotate(30 367.526 109.4)"/><g clip-path="url(#s)"><path fill="url(#t)" d="M411.14 179.895a15.237 15.237 0 0 0-2.17-5.938 16.564 16.564 0 0 0-3.794-4.232l.004-.004-15.998-12.287a.326.326 0 0 0-.036-.029c-.532-.407-1.252-.632-2.027-.632-.776 0-1.524.225-2.106.633-.625.437-.983 1.017-1.008 1.634-.023.576.252 1.13.776 1.562 1.029.812 2.057 1.642 3.085 2.473.999.807 2.027 1.638 3.051 2.447l-19.595-.013c-2.241 0-3.767 1.052-4.081 2.814-.137.771.106 1.62.65 2.27.577.689 1.415 1.069 2.36 1.069l1.494.001c2.063 0 4.136-.005 6.206-.01l1.974-.005-17.784 13.157-.071.052c-.993.761-1.644 1.829-1.784 2.928-.106.833.088 1.594.562 2.202.566.725 1.448 1.124 2.486 1.124 1.019 0 2.059-.386 2.929-1.089l9.604-7.86c-.041.384-.091.947-.085 1.356.01.647.218 1.945.547 2.999.679 2.166 1.824 4.148 3.402 5.888 1.641 1.811 3.641 3.247 5.942 4.267a19.088 19.088 0 0 0 7.773 1.622h.025a19.147 19.147 0 0 0 7.798-1.65c2.305-1.032 4.303-2.473 5.939-4.284 1.575-1.749 2.718-3.734 3.396-5.899.336-1.07.552-2.179.641-3.296a15.121 15.121 0 0 0-.105-3.27Zm-17.495 10.382c-6.006 0-10.876-4.357-10.876-9.732 0-5.374 4.87-9.731 10.876-9.731 6.006 0 10.876 4.357 10.876 9.731 0 5.375-4.87 9.732-10.876 9.732Zm6.272-10.587c.089 1.604-.552 3.093-1.677 4.196-1.145 1.123-2.778 1.829-4.604 1.829s-3.459-.706-4.604-1.829c-1.125-1.103-1.764-2.592-1.676-4.195.086-1.558.846-2.934 1.991-3.907 1.126-.958 2.638-1.542 4.289-1.542 1.651 0 3.163.584 4.289 1.542 1.145.973 1.905 2.348 1.992 3.906Z"/></g></g><g filter="url(#u)"><rect width="102.262" height="102.262" x="513.602" y="259.212" fill="#F8F8F8" fill-opacity=".01" rx="51.131" transform="rotate(90 513.602 259.212)"/><rect width="99.706" height="99.706" x="512.323" y="260.491" stroke="#F8F8F8" stroke-opacity=".1" stroke-width="2.557" rx="49.853" transform="rotate(90 512.323 260.491)"/><path fill="url(#v)" fill-rule="evenodd" d="m486.271 295.012-14.86 28.999h-14.07l6.15-11.855h-.284c-5.17 6.712-12.888 11.132-23.884 12.133v-11.968s7.032-.417 11.169-4.763h-11.164v-12.546h12.77l-.22 10.322h.284l5.129-10.322h10.152l-.658 10.259h.283l5.317-10.259h13.886Z" clip-rule="evenodd"/></g><g filter="url(#w)"><rect width="102.262" height="102.262" x="455.619" y="461.901" fill="#F8F8F8" fill-opacity=".01" rx="51.131" transform="rotate(150 455.619 461.901)"/><rect width="99.706" height="99.706" x="453.873" y="461.433" stroke="#F8F8F8" stroke-opacity=".1" stroke-width="2.557" rx="49.853" transform="rotate(150 453.873 461.433)"/><path fill="url(#x)" fill-rule="evenodd" d="M370.837 417.376c9.847-1.1 20.026-1.1 29.873 0 5.716.639 10.33 5.141 11.002 10.887a130.506 130.506 0 0 1 0 30.307c-.672 5.745-5.286 10.247-11.002 10.886a135.502 135.502 0 0 1-29.873 0c-5.716-.639-10.33-5.141-11.002-10.886a130.506 130.506 0 0 1 0-30.307c.672-5.746 5.286-10.248 11.002-10.887Zm29.4 4.235a131.227 131.227 0 0 0-28.927 0c-3.778.422-6.805 3.404-7.243 7.147a126.193 126.193 0 0 0 0 29.317c.438 3.743 3.465 6.724 7.243 7.147a131.35 131.35 0 0 0 28.927 0c3.778-.423 6.805-3.404 7.243-7.147a126.193 126.193 0 0 0 0-29.317c-.438-3.743-3.465-6.725-7.243-7.147Zm-16.599 31.747-1.906-5.968h-6.687l-1.812 5.968h-3.968l6.749-21.06h4.906l6.843 21.06h-4.125Zm-6.343-14.061-1.625 5.187h5.406l-1.656-5.187c-.329-1.036-.617-2.175-.88-3.218l-.182-.719h-.063c-.107.418-.214.865-.324 1.322v.002c-.21.877-.43 1.792-.676 2.613Zm24.624 5.906c0 .719-.063 1.281-.125 1.625h-10.187c.094 2.75 2.25 3.937 4.688 3.937 1.781 0 3.062-.25 4.218-.688l.562 2.656c-1.312.532-3.124.969-5.312.969-4.937 0-7.843-3.062-7.843-7.718 0-4.218 2.563-8.187 7.437-8.187 4.968 0 6.562 4.063 6.562 7.406Zm-6.781-4.781c-2.374 0-3.374 2.156-3.531 3.719h6.687c.032-1.407-.593-3.719-3.156-3.719Z" clip-rule="evenodd"/></g><g filter="url(#y)"><rect width="102.262" height="102.262" x="251.093" y="513.033" fill="#F8F8F8" fill-opacity=".01" rx="51.131" transform="rotate(-150 251.093 513.033)"/><rect width="99.706" height="99.706" x="250.625" y="511.287" stroke="#F8F8F8" stroke-opacity=".1" stroke-width="2.557" rx="49.853" transform="rotate(-150 250.625 511.287)"/><path fill="url(#z)" fill-rule="evenodd" d="M217.44 417.377a135.51 135.51 0 0 1 29.874 0c5.715.638 10.329 5.141 11.001 10.886a130.396 130.396 0 0 1 0 30.307c-.672 5.745-5.286 10.248-11.001 10.887-9.848 1.1-20.026 1.1-29.874 0-5.715-.639-10.329-5.142-11.001-10.887a130.396 130.396 0 0 1 0-30.307c.672-5.745 5.286-10.248 11.001-10.886Zm29.401 4.234a131.35 131.35 0 0 0-28.927 0c-3.779.423-6.805 3.404-7.243 7.147a126.193 126.193 0 0 0 0 29.317c.438 3.743 3.464 6.725 7.243 7.147a131.227 131.227 0 0 0 28.927 0c3.778-.422 6.805-3.404 7.242-7.147a126.193 126.193 0 0 0 0-29.317c-.437-3.743-3.464-6.724-7.242-7.147Zm-22.715 31.748h-3.812V432.58c1.375-.25 3.281-.438 5.875-.438 2.812 0 4.874.594 6.218 1.719 1.25 1.031 2.062 2.687 2.062 4.656 0 1.999-.625 3.655-1.812 4.78-1.531 1.531-3.937 2.25-6.656 2.25-.719 0-1.375-.031-1.875-.125v7.937Zm2.219-18.28c-1.063 0-1.812.094-2.219.188v7.124c.469.125 1.094.156 1.875.156 2.875 0 4.625-1.406 4.625-3.874 0-2.344-1.625-3.594-4.281-3.594Zm13.034 18.624c-1.844 0-3.5-.469-4.625-1.094l.75-2.781c.875.531 2.531 1.094 3.906 1.094 1.687 0 2.437-.688 2.437-1.688 0-1.031-.625-1.562-2.5-2.218-2.968-1.031-4.218-2.656-4.187-4.437 0-2.688 2.219-4.781 5.75-4.781 1.687 0 3.156.437 4.031.906l-.75 2.719c-.656-.375-1.875-.875-3.219-.875-1.375 0-2.124.656-2.124 1.593 0 .969.718 1.438 2.655 2.125 2.75 1 4.031 2.406 4.063 4.656 0 2.749-2.156 4.781-6.187 4.781Z" clip-rule="evenodd"/></g></g><g filter="url(#A)"><g clip-path="url(#B)" filter="url(#C)"><rect width="88.627" height="88.627" x="264.762" y="266.162" fill="#F8F8F8" fill-opacity=".01" rx="44.314" shape-rendering="crispEdges"/><rect width="88.627" height="88.627" x="264.762" y="266.162" fill="#121212" fill-opacity=".3" rx="44.314" shape-rendering="crispEdges"/><rect width="86.071" height="86.071" x="266.04" y="267.44" stroke="url(#D)" stroke-opacity=".25" stroke-width="2.557" rx="43.035" shape-rendering="crispEdges"/><path stroke="#fff" stroke-width="2.284" d="M329.328 310.717c0 11.121-9.062 20.145-20.251 20.145-11.189 0-20.25-9.024-20.25-20.145s9.061-20.145 20.25-20.145 20.251 9.024 20.251 20.145Z"/><path stroke="#fff" stroke-width="2.284" d="M317.205 318.806c-4.057 4.038-8.665 6.686-12.789 7.741-4.154 1.063-7.591.473-9.657-1.583s-2.658-5.476-1.591-9.609c1.061-4.104 3.722-8.689 7.779-12.727 4.058-4.038 8.666-6.685 12.79-7.741 4.153-1.062 7.591-.473 9.657 1.583s2.658 5.477 1.59 9.609c-1.06 4.104-3.721 8.689-7.779 12.727Z"/><path stroke="#fff" stroke-width="2.284" d="M317.205 302.628c4.058 4.038 6.719 8.623 7.779 12.727 1.068 4.133.475 7.553-1.591 9.609s-5.503 2.646-9.656 1.583c-4.124-1.055-8.732-3.703-12.79-7.741-4.058-4.037-6.718-8.623-7.779-12.727-1.068-4.132-.475-7.553 1.591-9.608 2.066-2.056 5.503-2.646 9.656-1.583 4.124 1.055 8.732 3.702 12.79 7.74Z"/></g><rect width="99.706" height="99.706" x="259.224" y="260.623" stroke="#2563EB" stroke-width="2.557" rx="49.853" shape-rendering="crispEdges"/></g></g><defs><linearGradient id="j" x1="147.155" x2="147.155" y1="318.998" y2="336.041" gradientUnits="userSpaceOnUse"><stop stop-color="#F8F8F8" stop-opacity=".9"/><stop offset="1" stop-color="#F8F8F8" stop-opacity=".3"/></linearGradient><linearGradient id="k" x1="147.155" x2="147.155" y1="301.954" y2="318.998" gradientUnits="userSpaceOnUse"><stop stop-color="#F8F8F8" stop-opacity=".9"/><stop offset="1" stop-color="#F8F8F8" stop-opacity=".3"/></linearGradient><linearGradient id="l" x1="147.155" x2="147.155" y1="284.91" y2="301.954" gradientUnits="userSpaceOnUse"><stop stop-color="#F8F8F8" stop-opacity=".9"/><stop offset="1" stop-color="#F8F8F8" stop-opacity=".3"/></linearGradient><linearGradient id="m" x1="164.198" x2="164.198" y1="284.91" y2="301.954" gradientUnits="userSpaceOnUse"><stop stop-color="#F8F8F8" stop-opacity=".9"/><stop offset="1" stop-color="#F8F8F8" stop-opacity=".3"/></linearGradient><linearGradient id="n" x1="164.198" x2="164.198" y1="301.954" y2="318.998" gradientUnits="userSpaceOnUse"><stop stop-color="#F8F8F8" stop-opacity=".9"/><stop offset="1" stop-color="#F8F8F8" stop-opacity=".3"/></linearGradient><linearGradient id="q" x1="232.381" x2="232.381" y1="260.17" y2="95.308" gradientUnits="userSpaceOnUse"><stop stop-color="#fff"/><stop offset="1"/></linearGradient><linearGradient id="t" x1="385.774" x2="385.774" y1="156.773" y2="198.294" gradientUnits="userSpaceOnUse"><stop stop-color="#F8F8F8" stop-opacity=".9"/><stop offset="1" stop-color="#F8F8F8" stop-opacity=".3"/></linearGradient><linearGradient id="v" x1="462.797" x2="462.797" y1="295.012" y2="324.289" gradientUnits="userSpaceOnUse"><stop stop-color="#F8F8F8" stop-opacity=".9"/><stop offset="1" stop-color="#F8F8F8" stop-opacity=".3"/></linearGradient><linearGradient id="x" x1="385.774" x2="385.774" y1="416.551" y2="470.282" gradientUnits="userSpaceOnUse"><stop stop-color="#F8F8F8" stop-opacity=".9"/><stop offset="1" stop-color="#F8F8F8" stop-opacity=".3"/></linearGradient><linearGradient id="z" x1="232.377" x2="232.377" y1="416.551" y2="470.282" gradientUnits="userSpaceOnUse"><stop stop-color="#F8F8F8" stop-opacity=".9"/><stop offset="1" stop-color="#F8F8F8" stop-opacity=".3"/></linearGradient><linearGradient id="D" x1="309.075" x2="347.63" y1="266.162" y2="363.485" gradientUnits="userSpaceOnUse"><stop stop-color="#fff" stop-opacity=".4"/><stop offset=".4" stop-color="#fff" stop-opacity=".01"/><stop offset=".6" stop-color="#fff" stop-opacity=".01"/><stop offset="1" stop-color="#fff" stop-opacity=".1"/></linearGradient><filter id="h" width="443.138" height="443.138" x="-65.887" y="88.774" color-interpolation-filters="sRGB" filterUnits="userSpaceOnUse"><feFlood flood-opacity="0" result="BackgroundImageFix"/><feGaussianBlur in="BackgroundImageFix" stdDeviation="85.219"/><feComposite in2="SourceAlpha" operator="in" result="effect1_backgroundBlur_8224_11419"/><feBlend in="SourceGraphic" in2="effect1_backgroundBlur_8224_11419" result="shape"/><feColorMatrix in="SourceAlpha" result="hardAlpha" values="0 0 0 0 0 0 0 0 0 0 0 0 0 0 0 0 0 0 127 0"/><feOffset dx="3.409" dy="6.817"/><feGaussianBlur stdDeviation="13.635"/><feComposite in2="hardAlpha" k2="-1" k3="1" operator="arithmetic"/><feColorMatrix values="0 0 0 0 0.972549 0 0 0 0 0.972549 0 0 0 0 0.972549 0 0 0 0.06 0"/><feBlend in2="shape" result="effect2_innerShadow_8224_11419"/></filter><filter id="o" width="480.568" height="480.568" x="-7.904" y="-62.783" color-interpolation-filters="sRGB" filterUnits="userSpaceOnUse"><feFlood flood-opacity="0" result="BackgroundImageFix"/><feGaussianBlur in="BackgroundImageFix" stdDeviation="85.219"/><feComposite in2="SourceAlpha" operator="in" result="effect1_backgroundBlur_8224_11419"/><feBlend in="SourceGraphic" in2="effect1_backgroundBlur_8224_11419" result="shape"/><feColorMatrix in="SourceAlpha" result="hardAlpha" values="0 0 0 0 0 0 0 0 0 0 0 0 0 0 0 0 0 0 127 0"/><feOffset dx="3.409" dy="6.817"/><feGaussianBlur stdDeviation="13.635"/><feComposite in2="hardAlpha" k2="-1" k3="1" operator="arithmetic"/><feColorMatrix values="0 0 0 0 0.972549 0 0 0 0 0.972549 0 0 0 0 0.972549 0 0 0 0.06 0"/><feBlend in2="shape" result="effect2_innerShadow_8224_11419"/></filter><filter id="r" width="480.567" height="480.568" x="145.489" y="-62.783" color-interpolation-filters="sRGB" filterUnits="userSpaceOnUse"><feFlood flood-opacity="0" result="BackgroundImageFix"/><feGaussianBlur in="BackgroundImageFix" stdDeviation="85.219"/><feComposite in2="SourceAlpha" operator="in" result="effect1_backgroundBlur_8224_11419"/><feBlend in="SourceGraphic" in2="effect1_backgroundBlur_8224_11419" result="shape"/><feColorMatrix in="SourceAlpha" result="hardAlpha" values="0 0 0 0 0 0 0 0 0 0 0 0 0 0 0 0 0 0 127 0"/><feOffset dx="3.409" dy="6.817"/><feGaussianBlur stdDeviation="13.635"/><feComposite in2="hardAlpha" k2="-1" k3="1" operator="arithmetic"/><feColorMatrix values="0 0 0 0 0.972549 0 0 0 0 0.972549 0 0 0 0 0.972549 0 0 0 0.06 0"/><feBlend in2="shape" result="effect2_innerShadow_8224_11419"/></filter><filter id="u" width="443.138" height="443.138" x="240.901" y="88.775" color-interpolation-filters="sRGB" filterUnits="userSpaceOnUse"><feFlood flood-opacity="0" result="BackgroundImageFix"/><feGaussianBlur in="BackgroundImageFix" stdDeviation="85.219"/><feComposite in2="SourceAlpha" operator="in" result="effect1_backgroundBlur_8224_11419"/><feBlend in="SourceGraphic" in2="effect1_backgroundBlur_8224_11419" result="shape"/><feColorMatrix in="SourceAlpha" result="hardAlpha" values="0 0 0 0 0 0 0 0 0 0 0 0 0 0 0 0 0 0 127 0"/><feOffset dx="3.409" dy="6.817"/><feGaussianBlur stdDeviation="13.635"/><feComposite in2="hardAlpha" k2="-1" k3="1" operator="arithmetic"/><feColorMatrix values="0 0 0 0 0.972549 0 0 0 0 0.972549 0 0 0 0 0.972549 0 0 0 0.06 0"/><feBlend in2="shape" result="effect2_innerShadow_8224_11419"/></filter><filter id="w" width="480.568" height="480.568" x="145.488" y="202.902" color-interpolation-filters="sRGB" filterUnits="userSpaceOnUse"><feFlood flood-opacity="0" result="BackgroundImageFix"/><feGaussianBlur in="BackgroundImageFix" stdDeviation="85.219"/><feComposite in2="SourceAlpha" operator="in" result="effect1_backgroundBlur_8224_11419"/><feBlend in="SourceGraphic" in2="effect1_backgroundBlur_8224_11419" result="shape"/><feColorMatrix in="SourceAlpha" result="hardAlpha" values="0 0 0 0 0 0 0 0 0 0 0 0 0 0 0 0 0 0 127 0"/><feOffset dx="3.409" dy="6.817"/><feGaussianBlur stdDeviation="13.635"/><feComposite in2="hardAlpha" k2="-1" k3="1" operator="arithmetic"/><feColorMatrix values="0 0 0 0 0.972549 0 0 0 0 0.972549 0 0 0 0 0.972549 0 0 0 0.06 0"/><feBlend in2="shape" result="effect2_innerShadow_8224_11419"/></filter><filter id="y" width="480.567" height="480.568" x="-7.906" y="202.902" color-interpolation-filters="sRGB" filterUnits="userSpaceOnUse"><feFlood flood-opacity="0" result="BackgroundImageFix"/><feGaussianBlur in="BackgroundImageFix" stdDeviation="85.219"/><feComposite in2="SourceAlpha" operator="in" result="effect1_backgroundBlur_8224_11419"/><feBlend in="SourceGraphic" in2="effect1_backgroundBlur_8224_11419" result="shape"/><feColorMatrix in="SourceAlpha" result="hardAlpha" values="0 0 0 0 0 0 0 0 0 0 0 0 0 0 0 0 0 0 127 0"/><feOffset dx="3.409" dy="6.817"/><feGaussianBlur stdDeviation="13.635"/><feComposite in2="hardAlpha" k2="-1" k3="1" operator="arithmetic"/><feColorMatrix values="0 0 0 0 0.972549 0 0 0 0 0.972549 0 0 0 0 0.972549 0 0 0 0.06 0"/><feBlend in2="shape" result="effect2_innerShadow_8224_11419"/></filter><filter id="A" width="129.533" height="170.438" x="244.31" y="259.344" color-interpolation-filters="sRGB" filterUnits="userSpaceOnUse"><feFlood flood-opacity="0" result="BackgroundImageFix"/><feColorMatrix in="SourceAlpha" result="hardAlpha" values="0 0 0 0 0 0 0 0 0 0 0 0 0 0 0 0 0 0 127 0"/><feMorphology in="SourceAlpha" radius="27.27" result="effect1_dropShadow_8224_11419"/><feOffset dy="54.54"/><feGaussianBlur stdDeviation="20.453"/><feComposite in2="hardAlpha" operator="out"/><feColorMatrix values="0 0 0 0 0 0 0 0 0 0 0 0 0 0 0 0 0 0 0.4 0"/><feBlend in2="BackgroundImageFix" mode="multiply" result="effect1_dropShadow_8224_11419"/><feBlend in="SourceGraphic" in2="effect1_dropShadow_8224_11419" result="shape"/><feColorMatrix in="SourceAlpha" result="hardAlpha" values="0 0 0 0 0 0 0 0 0 0 0 0 0 0 0 0 0 0 127 0"/><feOffset/><feGaussianBlur stdDeviation="6.817"/><feComposite in2="hardAlpha" k2="-1" k3="1" operator="arithmetic"/><feColorMatrix values="0 0 0 0 0.972549 0 0 0 0 0.972549 0 0 0 0 0.972549 0 0 0 0.25 0"/><feBlend in2="shape" result="effect2_innerShadow_8224_11419"/></filter><filter id="C" width="129.533" height="177.255" x="244.309" y="245.709" color-interpolation-filters="sRGB" filterUnits="userSpaceOnUse"><feFlood flood-opacity="0" result="BackgroundImageFix"/><feGaussianBlur in="BackgroundImageFix" stdDeviation="10.226"/><feComposite in2="SourceAlpha" operator="in" result="effect1_backgroundBlur_8224_11419"/><feColorMatrix in="SourceAlpha" result="hardAlpha" values="0 0 0 0 0 0 0 0 0 0 0 0 0 0 0 0 0 0 127 0"/><feMorphology in="SourceAlpha" radius="27.27" result="effect2_dropShadow_8224_11419"/><feOffset dy="54.54"/><feGaussianBlur stdDeviation="20.453"/><feComposite in2="hardAlpha" operator="out"/><feColorMatrix values="0 0 0 0 0 0 0 0 0 0 0 0 0 0 0 0 0 0 0.4 0"/><feBlend in2="effect1_backgroundBlur_8224_11419" mode="multiply" result="effect2_dropShadow_8224_11419"/><feBlend in="SourceGraphic" in2="effect2_dropShadow_8224_11419" result="shape"/><feColorMatrix in="SourceAlpha" result="hardAlpha" values="0 0 0 0 0 0 0 0 0 0 0 0 0 0 0 0 0 0 127 0"/><feOffset/><feGaussianBlur stdDeviation="6.817"/><feComposite in2="hardAlpha" k2="-1" k3="1" operator="arithmetic"/><feColorMatrix values="0 0 0 0 0.145098 0 0 0 0 0.388235 0 0 0 0 0.921569 0 0 0 1 0"/><feBlend in2="shape" result="effect3_innerShadow_8224_11419"/></filter><radialGradient id="b" cx="0" cy="0" r="1" gradientTransform="matrix(0 309.169 -401.167 0 309.7 309.787)" gradientUnits="userSpaceOnUse"><stop stop-color="#D9D9D9"/><stop offset="1" stop-color="#737373" stop-opacity="0"/></radialGradient><radialGradient id="d" cx="0" cy="0" r="1" gradientTransform="rotate(90 142.468 166.608) scale(286.335)" gradientUnits="userSpaceOnUse"><stop offset=".064" stop-color="#2563EB"/><stop offset=".25" stop-color="#fff" stop-opacity="0"/><stop offset=".75" stop-color="#fff" stop-opacity="0"/><stop offset=".949" stop-color="#2563EB"/></radialGradient><radialGradient id="e" cx="0" cy="0" r="1" gradientTransform="rotate(90 142.468 166.608) scale(286.335)" gradientUnits="userSpaceOnUse"><stop offset=".169" stop-color="#fff" stop-opacity="0"/><stop offset=".805" stop-color="#fff" stop-opacity="0"/><stop offset="1" stop-color="#fff" stop-opacity=".15"/></radialGradient><radialGradient id="f" cx="0" cy="0" r="1" gradientTransform="rotate(90 -143.868 452.944) scale(286.335)" gradientUnits="userSpaceOnUse"><stop offset=".25" stop-color="#fff" stop-opacity="0"/><stop offset=".423" stop-color="#2563EB"/><stop offset=".575" stop-color="#2563EB"/><stop offset=".75" stop-color="#fff" stop-opacity="0"/></radialGradient><radialGradient id="g" cx="0" cy="0" r="1" gradientTransform="rotate(90 -143.868 452.944) scale(286.335)" gradientUnits="userSpaceOnUse"><stop offset=".352" stop-color="#fff" stop-opacity="0"/><stop offset=".498" stop-color="#fff" stop-opacity=".15"/><stop offset=".648" stop-color="#fff" stop-opacity="0"/></radialGradient><clipPath id="a"><rect width="617.5" height="618.617" x=".75" y=".383" fill="#fff" rx="308.75"/></clipPath><clipPath id="i"><path fill="#fff" d="M130.116 284.909h51.131v51.131h-51.131z"/></clipPath><clipPath id="p"><path fill="#fff" d="M206.815 151.968h51.131v51.131h-51.131z"/></clipPath><clipPath id="s"><path fill="#fff" d="M360.208 151.969h51.131V203.1h-51.131z"/></clipPath><clipPath id="B"><rect width="102.262" height="102.262" x="257.945" y="259.344" fill="#fff" rx="51.131"/></clipPath></defs></svg>